<svg xmlns="http://www.w3.org/2000/svg" viewBox="0 0 160 140"><defs><style>.cls-1{fill:none;stroke:#402020;stroke-linecap:round;stroke-linejoin:round;stroke-width:2px;}.cls-2{fill:#402020;}.cls-3{fill:#f3bd48;}.cls-4{fill:#edc7a2;}</style></defs><title>Logomark - FullColor</title><g id="Logotype"><line class="cls-1" x1="30" y1="119.93" x2="130" y2="119.93"/></g><g id="Logomark"><path class="cls-2" d="M134.16,66.93c-.67-.73-1.34-1.46-2-2.2q-2.16-2.45-4.3-4.91a154.06,154.06,0,0,0-12.08-12c-3.7-3.38-7.28-6.87-10.65-10.58a110.74,110.74,0,0,0-8-8.07c-.92-.83-1.84-1.67-2.71-2.56a32.36,32.36,0,0,0-6.15-4.77,10.41,10.41,0,0,0-8-1.41,18.39,18.39,0,0,0-7.63,3.72c-4.58,3.56-8.92,7.4-13.38,11.1-2.46,2-4.79,4.24-7.26,6.27a27.22,27.22,0,0,0-2.26,2.17c-1.57,1.62-3,3.38-4.67,4.92S41.59,52,39.85,53.74c-3.66,3.63-7.29,7.27-11,10.89A25.25,25.25,0,0,0,25.37,69,2.27,2.27,0,0,0,25,70.5a4.29,4.29,0,0,0,2.2,3.15,12.4,12.4,0,0,0,3.62,1.62c2.49.64,5,1.22,7.52,1.7,4.64.87,9.33,1.44,14,1.9a10.89,10.89,0,0,1,2.24.41c3.9,1.25,7.82,2.45,11.72,3.69,1.53.48,1.27.1,1.26,1.76a3.85,3.85,0,0,0,0,.59c.05.48-.07.82-.6,1a3.25,3.25,0,0,0-.69.31,3.63,3.63,0,0,0-2,2.23A7.11,7.11,0,0,0,64,91.23a6,6,0,0,1-.38,2.41,12.24,12.24,0,0,1-1.85,3.13A21.34,21.34,0,0,1,57,100.71c-2.82,1.9-5.81,3.51-8.69,5.3a26.56,26.56,0,0,0-8.82,8.41A9.27,9.27,0,0,0,38,119.69c0,.45.17.61.58.61a2.93,2.93,0,0,0,1.25.09l11.44-.07c13.77-.13,27.53,0,41.29-.18,8.88-.09,17.75,0,26.62-.08a3.13,3.13,0,0,0,1.1-.08,4.17,4.17,0,0,0,1.17,0c.34,0,.46-.14.39-.47a18.9,18.9,0,0,0-1.22-4.14A28.23,28.23,0,0,0,112.25,105c-.69-.53-1.4-1.05-2.06-1.63-3-2.59-6.1-5-9.27-7.42a8.61,8.61,0,0,1-3.63-5.89,5.43,5.43,0,0,0-2.83-4.19.78.78,0,0,1-.47-.73c0-.65,0-1.3-.1-2a.51.51,0,0,1,.41-.62c.49-.14,1-.29,1.46-.45l8.12-2.71a3.75,3.75,0,0,1,1.15-.24c3.37,0,6.73-.25,10.08-.5A66.39,66.39,0,0,0,125.89,77a19,19,0,0,0,5.68-2.18A6.79,6.79,0,0,0,135,69.5,3.08,3.08,0,0,0,134.16,66.93ZM55.36,78.41c.73-.07,3.81.82,8.18,2.32,2.71.94,5.52,1.56,8.08,2.88C66.17,82,60.67,80.51,55.36,78.41Zm7.9,1.12H67c.24,0,.38.09.38.33s.13.38,0,.65A25.26,25.26,0,0,1,63.26,79.53Zm26.62,3.75c.19-.33.52-.35.8-.42,2.36-.59,4.64-1.47,6.92-2.27s4.29-1.59,6.45-2.35c1-.33,1.92-.59,2.89-.89C105.55,78.33,91,83.34,89.88,83.28Zm3.83-3.6c0-.32.1-.44.43-.43.8,0,1.61,0,2.41,0l0,.15-2.48,1c-.26.1-.37,0-.38-.26S93.72,79.82,93.71,79.68Z"/><path class="cls-3" d="M96.52,89.49a9.67,9.67,0,0,1-1.79,3.43,40.18,40.18,0,0,1-8.3,7.31c-4.75,3.18-9.6,6.18-14.47,9.17-2.5,1.53-5,3.13-7.32,4.89a12.54,12.54,0,0,1-1.47.93c3.07-2.36,6.08-4.79,9.31-6.92,2.2-1.45,4.61-2.52,6.82-4,3.29-2.14,6.71-4.09,9.81-6.52a41.2,41.2,0,0,0,5.13-4.93,12.16,12.16,0,0,0,1.86-3C96.15,89.76,96.15,89.6,96.52,89.49Z"/><path class="cls-3" d="M65.39,92c1.81,4.43,4.43,8.42,6.84,12.67C70.87,103.28,65.86,94.72,65.39,92Z"/><path class="cls-3" d="M29.1,66.85a11.21,11.21,0,0,1,3.18-3.36,41.25,41.25,0,0,1,6-3.72,57.2,57.2,0,0,1,13.62-5.09c1-.27,2.08-.45,3.1-.78-.88.11-1.77.2-2.65.35-2,.32-3.91.59-5.84,1A29.73,29.73,0,0,0,38,58.74c-.82.49-1.68.93-2.5,1.37l3.77-3.85c1.67-1.69,3.36-3.36,5-5,.6-.6,1.16-1.24,1.71-1.88a51.88,51.88,0,0,1,4.29-4.23C52.15,43.38,54,41.71,55.86,40c2.63-2.49,5.41-4.8,8.25-7,2.49-2,4.86-4.06,7.3-6.08a43.12,43.12,0,0,1,4.31-3.3,14.5,14.5,0,0,1,5.65-1.93,2.91,2.91,0,0,1,.93,0,2.46,2.46,0,0,1,2.27,1.82c.68,2.39,1.48,4.75,2.25,7.11s1.72,4.48,2.45,6.77c.3.95.63,1.88.85,2.84a15.08,15.08,0,0,0,1.4,3.63,2.11,2.11,0,0,0,1.87.91.27.27,0,0,0,.22-.38.74.74,0,0,0-.64-.6c-.53,0-.78-.39-1-.76a6.49,6.49,0,0,1-1.1-2.64,52.82,52.82,0,0,0-3.17-9.82c-1.09-2.45-2.09-4.95-3-7.47,0-.15-.19-.38-.13-.47.39-.53-.14-.73-.42-1.09a3.43,3.43,0,0,1,1.75.4A16.5,16.5,0,0,1,90.67,25c2,1.94,4.07,3.84,6.22,5.64q.45.39.87.81c2.69,2.79,5.39,5.57,7.93,8.5a71.85,71.85,0,0,0,6.17,6.17A100.23,100.23,0,0,1,120.71,55a55.15,55.15,0,0,0,6.72,6.69c.29.24.54.51.82.75a2.32,2.32,0,0,0,.42.25c-.19.25-.29.2-.39.15a35.8,35.8,0,0,0-8.52-3c-3.71-1-7.46-1.82-11.24-2.52-2.58-.48-5.19-.8-7.79-1.13-3.39-.44-6.78-.88-10.17-1.29a69.9,69.9,0,0,0-11.93-.49c-2.17.1-4.35,0-6.53-.07a76.45,76.45,0,0,0-8.56.2A73.69,73.69,0,0,0,52,56.32a77.74,77.74,0,0,0-9.41,2.8,49.82,49.82,0,0,0-10.12,5.49C31.37,65.37,30.21,66.08,29.1,66.85Zm66.59-14a5.55,5.55,0,0,1-1.42,0c-1.65-.19-3.3-.45-5-.57-3.32-.25-6.64-.65-10-.72a48.22,48.22,0,0,0-6.69.16c-1.51.17-3,.36-4.54.57a1.35,1.35,0,0,0-.89.28c1.24.06,2.4-.06,3.54-.11,1.84-.09,3.68-.08,5.51-.08,3.11,0,6.21.33,9.3.59,1.21.1,2.42.19,3.62.37,2.21.34,4.42.66,6.64.87,2.84.28,5.65.78,8.48,1.17,1.9.25,3.79.63,5.69.87a72.73,72.73,0,0,1,8.91,1.64,3.44,3.44,0,0,0,1.43.23c-2-.72-4-1.47-6.1-2-1.72-.44-3.4-1-5.16-1.33-4.07-.67-8.15-1.29-12.25-1.71-.25,0-.43-.06-.5-.34-.15-.66-.46-1.27-.64-1.93A39.57,39.57,0,0,0,94,45.61C94.52,48,95.1,50.37,95.69,52.85ZM73.8,28.7c-1,1-1.92,1.77-2.73,2.67a17.31,17.31,0,0,0-2.92,3.73c-.72,1.41-1.63,2.7-2.42,4.07a26,26,0,0,1-1.37,2.25,30,30,0,0,1-2.78,3.08,8,8,0,0,0-2,3.11,7.71,7.71,0,0,1-1,2.3c-.37.53-.73,1.07-1.09,1.61a1.5,1.5,0,0,0-.3.78c0,.14,0,.3.17.34s.2-.06.27-.15a9.33,9.33,0,0,0,2.19-4.05A1.11,1.11,0,0,1,60,47.9a29.8,29.8,0,0,1,2.39-2.51,14.17,14.17,0,0,0,2.8-2.83A38.14,38.14,0,0,0,69,35.67a16,16,0,0,1,1.21-2.23C71.3,31.84,72.48,30.33,73.8,28.7ZM114,55.3a.69.69,0,0,0-.21-.54c-1.13-1.34-2.2-2.73-3.43-4a20.32,20.32,0,0,1-1.61-1.85c-2-2.59-4.08-5.2-6.12-7.8s-4.15-5.29-6.23-7.92a13,13,0,0,0-1.59-1.82.25.25,0,0,0,0,.29l5.61,8.47a27.25,27.25,0,0,0,2.43,3.15c1.26,1.38,2.53,2.74,3.73,4.17,2.07,2.46,4.2,4.88,6.47,7.16C113.34,54.88,113.53,55.22,114,55.3Z"/><path class="cls-4" d="M71.88,64.82a32.5,32.5,0,0,0,4.73-.21,4.53,4.53,0,0,0,2.18-.84,1.93,1.93,0,0,1,2.7,0l1.12.76a5.65,5.65,0,0,0,3.08.77c2,.08,3.89-.16,5.84-.23,1.32,0,2.65-.12,4-.22a2.38,2.38,0,0,1,2.07,1.09c.2.22,0,.43,0,.63a28.85,28.85,0,0,1-3.66,9.34,32.32,32.32,0,0,1-2.86,4.5,15.07,15.07,0,0,1-6.92,5,13.73,13.73,0,0,1-6.93.51A8.23,8.23,0,0,1,73,83.43a44.46,44.46,0,0,1-6.77-8.56,13.55,13.55,0,0,1-1.57-4.09c-.28-1.3-.6-2.59-.94-3.87a1,1,0,0,1,.42-1.16,3.32,3.32,0,0,1,1.64-.63,29.91,29.91,0,0,1,4.73-.3Z"/><path class="cls-4" d="M92.25,83.38a29.66,29.66,0,0,1,.08,5.32,6,6,0,0,0,.07,1.52,2.47,2.47,0,0,1-.66,2.24,51.9,51.9,0,0,1-11.39,9.29c-1.46.87-2.87,1.81-4.29,2.73-.3.19-.47.22-.67-.11A48.54,48.54,0,0,1,70.88,96a10.7,10.7,0,0,1-.73-3.71,63.18,63.18,0,0,0-.2-6.6c0-.5,0-1,0-1.59l3.3,1a2.2,2.2,0,0,1,.65.4,10.55,10.55,0,0,0,1,.69,9.37,9.37,0,0,0,6.48,1,12.34,12.34,0,0,0,5.08-1.48,25.59,25.59,0,0,1,5.38-2.24C92,83.42,92.1,83.41,92.25,83.38Z"/><path class="cls-3" d="M71.62,83.61c-5.45-1.64-11-3.1-16.26-5.2.73-.07,3.81.82,8.18,2.32C66.25,81.67,69.06,82.29,71.62,83.61Z"/><path class="cls-3" d="M106.94,77.35c-1.39,1-15.92,6-17.06,5.93.19-.33.52-.35.8-.42,2.36-.59,4.64-1.47,6.92-2.27s4.29-1.59,6.45-2.35C105,77.91,106,77.65,106.94,77.35Z"/><path class="cls-2" d="M83.4,70.72a1.47,1.47,0,0,0-.91.32,3.27,3.27,0,0,1-2.22.85,2.49,2.49,0,0,1-1.44-.51,1.09,1.09,0,0,0-1.12-.28.18.18,0,0,1-.27-.1.27.27,0,0,1,.11-.36.66.66,0,0,1,.57-.09,2.29,2.29,0,0,1,1,.46,1.86,1.86,0,0,0,2.32,0c.38-.24.76-.48,1.16-.69a1.53,1.53,0,0,1,.84-.19c.26,0,.46.11.42.4S83.58,70.74,83.4,70.72Z"/><path class="cls-2" d="M85.9,78.41a6.22,6.22,0,0,1-5.05,2.52c-1.4-.07-1.95-.25-2.25-.87A10.89,10.89,0,0,0,85.9,78.41Z"/><path class="cls-2" d="M76.93,68.61c-.11.3-.23.58-.31.88a1.43,1.43,0,0,0,.15,1.41.42.42,0,0,1,.09.19.26.26,0,0,1-.45.24,1.44,1.44,0,0,1-.33-.94A2.32,2.32,0,0,1,76.93,68.61Z"/><path class="cls-2" d="M84.58,69a2.11,2.11,0,0,1,.23,1.59c0,.13-.11.25-.28.2a.18.18,0,0,1-.12-.26C84.61,70,84.45,69.52,84.58,69Z"/><path class="cls-2" d="M87.86,75.79a30,30,0,0,1-5.92,0,1.38,1.38,0,0,0-.67,0,3.58,3.58,0,0,1-1.83.23,1.16,1.16,0,0,0-.72.18,11.64,11.64,0,0,1-1.06.53,4.37,4.37,0,0,1-2.8.38,2.69,2.69,0,0,0-1.23,0v.18c.88.16,1.77.31,2.65.5a11.52,11.52,0,0,0,4.3,0c2-.33,3.88-.72,5.82-1.1.53-.11,1-.3,1.55-.46.2-.06.5-.1.42-.41S88,75.77,87.86,75.79Z"/></g></svg>